<?xml version="1.0" ?>
<!-- Uploaded to: SVG Repo, www.svgrepo.com, Generator: SVG Repo Mixer Tools -->
<svg width="800px" height="800px" viewBox="0 -9.96 74.666664 74.666664" id="svg2" version="1.1" xmlns="http://www.w3.org/2000/svg" xmlns:svg="http://www.w3.org/2000/svg">
<defs id="defs6">
<clipPath clipPathUnits="userSpaceOnUse" id="clipPath266">
<path d="M 0,64 H 64 V 0 H 0 Z" id="path264"/>
</clipPath>
</defs>
<g id="g258" transform="matrix(1.3333333,0,0,-1.3333333,-5.3331999,69.405332)">
<g id="g260">
<g clip-path="url(#clipPath266)" id="g262">
<g id="g268" transform="translate(45,25)">
<path d="M 0,0 C 0.553,0 1,0.447 1,1 1,1.553 0.553,2 0,2 h -26 c -0.553,0 -1,-0.447 -1,-1 0,-0.553 0.447,-1 1,-1 h 3 v -3 c 0,-0.553 0.447,-1 1,-1 0.553,0 1,0.447 1,1 v 3 z" id="path270" style="fill:#231f20;fill-opacity:1;fill-rule:nonzero;stroke:none"/>
</g>
<g id="g272" transform="translate(57.6699,13)">
<path d="m 0,0 h -7.67 -7.67 c -0.179,0 -0.33,0.174 -0.33,0.38 V 6 h 3 c 0.553,0 1,0.447 1,1 0,0.553 -0.447,1 -1,1 h -3 v 0.62 c 0,0.206 0.151,0.38 0.33,0.38 h 5.8 c 0.321,0 0.624,0.154 0.811,0.416 L -8.308,10 h 3.638 4 c 0.552,0 1,-0.448 1,-1 V 8 h -3 c -0.553,0 -1,-0.447 -1,-1 0,-0.553 0.447,-1 1,-1 h 3 V 0.38 C 0.33,0.174 0.179,0 0,0 m -43.31,4 c -1.301,0 -2.36,1.059 -2.36,2.36 V 19 23.322 l 3.021,-6.731 C -42.488,16.231 -42.131,16 -41.737,16 h 31.865 c 0.393,0 0.751,0.231 0.912,0.591 l 3.29,7.331 V 19 12 h -3.15 c -0.322,0 -0.624,-0.154 -0.812,-0.416 L -10.053,11 h -5.287 c -1.285,0 -2.33,-1.067 -2.33,-2.38 V 4 Z m -8.36,14 h 1 V 7 h -1 z m 4,-11 h -1 v 11 h 1 z m 4.36,23 h 7.64 v -3.887 l -0.627,-3.865 c -0.043,-0.265 0.023,-0.536 0.182,-0.753 0.159,-0.216 0.398,-0.359 0.665,-0.397 3.2,-0.456 6.423,-0.684 9.645,-0.684 3.221,0 6.442,0.228 9.639,0.683 0.545,0.077 0.926,0.581 0.852,1.126 -0.089,0.651 -0.132,1.282 -0.174,1.906 -0.044,0.636 -0.092,1.292 -0.182,1.955 V 30 h 7.64 c 1.006,0 1.866,-0.614 2.204,-1.542 L -10.52,18 h -30.57 l -4.524,10.082 c 0.202,1.106 1.15,1.918 2.304,1.918 m 17.505,7.054 c 2.945,0 5.391,-2.191 5.866,-5.054 h -0.731 -10 -1 c 0.475,2.863 2.921,5.054 5.865,5.054 m 8.135,-10.148 c -0.146,-0.018 -0.279,-0.033 -0.421,-0.051 -0.493,-0.058 -1.015,-0.114 -1.579,-0.168 V 30 h 0.772 c 0.017,-0.001 0.031,-0.01 0.048,-0.01 0.018,0 0.032,0.009 0.049,0.01 h 1.131 z m -4,3.094 v -3.466 c -2.658,-0.172 -5.341,-0.177 -8,-0.015 V 30 Z m -11.139,0 c 0.018,-0.001 0.032,-0.01 0.049,-0.01 0.018,0 0.031,0.009 0.049,0.01 h 1.041 v -3.317 c -0.719,0.067 -1.382,0.141 -2,0.22 V 30 Z m 15.258,-5.096 c 0.026,-0.3 0.046,-0.605 0.068,-0.917 0.022,-0.34 0.046,-0.686 0.077,-1.039 -5.562,-0.711 -11.187,-0.713 -16.752,-0.006 l 0.318,1.963 c 1.039,-0.137 2.008,-0.241 2.989,-0.322 3.35,-0.257 6.746,-0.258 10.097,0.001 0.028,0.002 0.052,0.005 0.08,0.007 0.001,0 0.002,-0.001 0.004,-0.001 0.025,0 0.051,0.001 0.076,0.003 0.974,0.075 1.877,0.166 2.932,0.299 0.035,0.004 0.076,0.007 0.111,0.012 M -2.67,12 h -1 v 6 h 1 z m 3,-0.171 c -0.086,0.03 -0.178,0.047 -0.268,0.069 -0.056,0.015 -0.11,0.034 -0.168,0.045 C -0.289,11.978 -0.477,12 -0.67,12 v 6 h 1 z m 1,8.171 h -5 v 7.64 c 0,0.254 -0.029,0.498 -0.071,0.732 0.025,0.241 -0.04,0.473 -0.178,0.669 C -4.503,30.8 -6.125,32 -8.03,32 h -8.64 -1.249 c -0.492,3.97 -3.837,7.054 -7.886,7.054 -4.049,0 -7.393,-3.084 -7.885,-7.054 h -0.98 -8.64 c -2.155,0 -3.926,-1.537 -4.275,-3.62 -0.063,-0.151 -0.085,-0.313 -0.069,-0.48 -0.006,-0.085 -0.016,-0.168 -0.016,-0.26 V 20 h -5 c -0.553,0 -1,-0.448 -1,-1 V 6 c 0,-0.553 0.447,-1 1,-1 h 5.239 c 0.576,-1.736 2.195,-3 4.121,-3 h 25.64 V 0.38 c 0,-1.313 1.045,-2.38 2.33,-2.38 H 0 c 1.285,0 2.33,1.067 2.33,2.38 V 9 19 c 0,0.552 -0.447,1 -1,1" id="path274" style="fill:#231f20;fill-opacity:1;fill-rule:nonzero;stroke:none"/>
</g>
<g id="g276" transform="translate(50,15)">
<path d="M 0,0 C -1.103,0 -2,0.897 -2,2 -2,3.103 -1.103,4 0,4 1.103,4 2,3.103 2,2 2,0.897 1.103,0 0,0 M 4,2 C 4,4.206 2.206,6 0,6 -2.206,6 -4,4.206 -4,2 c 0,-2.206 1.794,-4 4,-4 2.206,0 4,1.794 4,4" id="path278" style="fill:#231f20;fill-opacity:1;fill-rule:nonzero;stroke:none"/>
</g>
<g id="g280" transform="translate(50,18)">
<path d="m 0,0 c -0.553,0 -1,-0.447 -1,-1 0,-0.553 0.447,-1 1,-1 0.553,0 1,0.447 1,1 0,0.553 -0.447,1 -1,1" id="path282" style="fill:#231f20;fill-opacity:1;fill-rule:nonzero;stroke:none"/>
</g>
</g>
</g>
</g>
</svg>